<svg width="16" height="16" viewBox="0 0 16 16" fill="none" xmlns="http://www.w3.org/2000/svg">
<g clip-path="url(#clip0_6511_1926)">
<g clip-path="url(#clip1_6511_1926)">
<mask id="mask0_6511_1926" style="mask-type:luminance" maskUnits="userSpaceOnUse" x="0" y="0" width="16" height="16">
<path d="M15.3713 0.409424H0.3125V15.4682H15.3713V0.409424Z" fill="white"/>
</mask>
<g mask="url(#mask0_6511_1926)">
<path d="M13.4874 8.20511V7.31161C13.4874 5.81392 12.8925 4.37757 11.8334 3.31854C10.7744 2.25952 9.33804 1.66455 7.84035 1.66455C6.34265 1.66455 4.90631 2.25952 3.84728 3.31854C2.78824 4.37757 2.19329 5.81392 2.19329 7.31161V8.20511C1.53519 8.49488 0.996611 9.00193 0.667719 9.64135C0.338822 10.2808 0.239571 11.0139 0.386581 11.7177C0.53359 12.4216 0.917938 13.0536 1.47528 13.508C2.03262 13.9623 2.72913 14.2114 3.44819 14.2136H4.7031V7.93906H3.44819V7.31161C3.44819 6.14674 3.91094 5.02958 4.73463 4.20589C5.55832 3.3822 6.67547 2.91946 7.84035 2.91946C9.00522 2.91946 10.1224 3.3822 10.9461 4.20589C11.7697 5.02958 12.2325 6.14674 12.2325 7.31161V7.93906H10.9776V12.9587H8.4678V14.2136H12.2325C12.9516 14.2114 13.648 13.9623 14.2054 13.508C14.7628 13.0536 15.1471 12.4216 15.2942 11.7177C15.4412 11.0139 15.3419 10.2808 15.0129 9.64135C14.6841 9.00193 14.1455 8.49488 13.4874 8.20511ZM3.44819 12.9587C2.94896 12.9587 2.47017 12.7603 2.11717 12.4074C1.76416 12.0543 1.56583 11.5756 1.56583 11.0764C1.56583 10.5771 1.76416 10.0983 2.11717 9.74526C2.47017 9.39229 2.94896 9.19396 3.44819 9.19396V12.9587ZM12.2325 12.9587V9.19396C12.7317 9.19396 13.2105 9.39229 13.5635 9.74526C13.9166 10.0983 14.1149 10.5771 14.1149 11.0764C14.1149 11.5756 13.9166 12.0543 13.5635 12.4074C13.2105 12.7603 12.7317 12.9587 12.2325 12.9587Z" fill="#3BB77E"/>
</g>
</g>
</g>
<defs>
<clipPath id="clip0_6511_1926">
<rect width="16" height="16" fill="white"/>
</clipPath>
<clipPath id="clip1_6511_1926">
<rect width="16" height="16" fill="white"/>
</clipPath>
</defs>
</svg>
