<svg width="13" height="15" viewBox="0 0 13 15" fill="none" xmlns="http://www.w3.org/2000/svg">
<path d="M6.25891 14.63L5.83891 14.3033C4.81224 13.4322 3.83224 12.4522 2.89891 11.3633C1.21891 9.40334 0.378906 7.77 0.378906 6.46334C0.378906 5.40556 0.643351 4.42556 1.17224 3.52334C1.70113 2.62112 2.41668 1.90556 3.31891 1.37667C4.22113 0.847783 5.20113 0.583338 6.25891 0.583338C7.31668 0.583338 8.29668 0.847783 9.19891 1.37667C10.1011 1.90556 10.8167 2.62112 11.3456 3.52334C11.8745 4.42556 12.1389 5.40556 12.1389 6.46334C12.1389 7.77 11.2989 9.40334 9.61891 11.3633C8.71668 12.4211 7.73668 13.4011 6.67891 14.3033L6.25891 14.63ZM6.25891 1.84334C5.41891 1.84334 4.64891 2.05334 3.94891 2.47334C3.24891 2.89334 2.68891 3.45334 2.26891 4.15334C1.84891 4.85334 1.63891 5.63112 1.63891 6.48667C1.63891 7.34223 2.21446 8.48556 3.36557 9.91667C4.17446 10.9433 5.13891 11.9544 6.25891 12.95C7.37891 11.9544 8.34335 10.9433 9.15224 9.91667C10.3034 8.48556 10.8789 7.34223 10.8789 6.48667C10.8789 5.63112 10.6689 4.85334 10.2489 4.15334C9.82891 3.45334 9.26891 2.89334 8.56891 2.47334C7.86891 2.05334 7.09891 1.84334 6.25891 1.84334ZM6.25891 8.79667C5.60557 8.79667 5.05335 8.57112 4.60224 8.12C4.15113 7.66889 3.92557 7.11667 3.92557 6.46334C3.92557 5.81001 4.15113 5.25778 4.60224 4.80667C5.05335 4.35556 5.60557 4.13 6.25891 4.13C6.91224 4.13 7.46446 4.35556 7.91557 4.80667C8.36668 5.25778 8.59224 5.81001 8.59224 6.46334C8.59224 7.11667 8.36668 7.66889 7.91557 8.12C7.46446 8.57112 6.91224 8.79667 6.25891 8.79667ZM6.25891 5.29667C5.9478 5.29667 5.67557 5.41334 5.44224 5.64667C5.20891 5.88 5.09224 6.15223 5.09224 6.46334C5.09224 6.77445 5.20891 7.04667 5.44224 7.28C5.67557 7.51334 5.9478 7.63 6.25891 7.63C6.57002 7.63 6.84224 7.51334 7.07557 7.28C7.30891 7.04667 7.42557 6.77445 7.42557 6.46334C7.42557 6.15223 7.30891 5.88 7.07557 5.64667C6.84224 5.41334 6.57002 5.29667 6.25891 5.29667Z" fill="#B6B6B6"/>
</svg>
