<svg width="25" height="25" viewBox="0 0 25 25" fill="none" xmlns="http://www.w3.org/2000/svg">
<rect x="0.890625" y="0.0499878" width="24" height="24" rx="12" fill="#BCE3C9"/>
<path d="M11.7613 10.698C12.2093 10.602 12.6213 10.554 12.9973 10.554C13.4453 10.554 13.8413 10.62 14.1853 10.752C14.5293 10.884 14.8153 11.066 15.0433 11.298C15.2753 11.53 15.4493 11.804 15.5653 12.12C15.6853 12.436 15.7453 12.78 15.7453 13.152C15.7453 13.608 15.6653 14.02 15.5053 14.388C15.3493 14.756 15.1313 15.072 14.8513 15.336C14.5753 15.596 14.2493 15.796 13.8733 15.936C13.4973 16.076 13.0913 16.146 12.6553 16.146C12.4033 16.146 12.1613 16.12 11.9293 16.068C11.6973 16.02 11.4793 15.954 11.2753 15.87C11.0753 15.786 10.8893 15.69 10.7173 15.582C10.5453 15.474 10.3933 15.36 10.2613 15.24L10.5913 14.784C10.6633 14.68 10.7573 14.628 10.8733 14.628C10.9533 14.628 11.0433 14.66 11.1433 14.724C11.2433 14.784 11.3653 14.852 11.5093 14.928C11.6533 15.004 11.8213 15.074 12.0133 15.138C12.2093 15.198 12.4413 15.228 12.7093 15.228C13.0093 15.228 13.2793 15.18 13.5193 15.084C13.7593 14.988 13.9653 14.852 14.1373 14.676C14.3093 14.496 14.4413 14.282 14.5333 14.034C14.6253 13.786 14.6713 13.508 14.6713 13.2C14.6713 12.932 14.6313 12.69 14.5513 12.474C14.4753 12.258 14.3573 12.074 14.1973 11.922C14.0413 11.77 13.8453 11.652 13.6093 11.568C13.3733 11.484 13.0973 11.442 12.7813 11.442C12.5653 11.442 12.3393 11.46 12.1033 11.496C11.8713 11.532 11.6333 11.59 11.3893 11.67L10.7173 11.472L11.4073 7.45199H15.4813V7.91999C15.4813 8.07199 15.4333 8.19799 15.3373 8.29799C15.2453 8.39399 15.0853 8.44199 14.8573 8.44199H12.1573L11.7613 10.698Z" fill="#253D4E"/>
</svg>
