<svg width="16" height="17" viewBox="0 0 16 17" fill="none" xmlns="http://www.w3.org/2000/svg">
<g clip-path="url(#clip0_6511_1935)">
<g clip-path="url(#clip1_6511_1935)">
<g clip-path="url(#clip2_6511_1935)">
<mask id="mask0_6511_1935" style="mask-type:luminance" maskUnits="userSpaceOnUse" x="0" y="0" width="16" height="17">
<path d="M16 0.634277H0V16.6343H16V0.634277Z" fill="white"/>
</mask>
<g mask="url(#mask0_6511_1935)">
<path d="M0.963115 5.08044C0.739887 5.14422 0.537181 5.26518 0.375056 5.43136C0.212931 5.59754 0.0970051 5.80317 0.0387506 6.0279C-0.019504 6.25264 -0.0180687 6.48869 0.0429143 6.7127C0.103898 6.93671 0.222315 7.14091 0.386449 7.3051L2.66112 9.5771V13.9678H7.05645L9.34645 16.2544C9.46927 16.3785 9.61546 16.4771 9.77657 16.5443C9.93768 16.6116 10.1106 16.6463 10.2852 16.6464C10.3999 16.6462 10.5141 16.6314 10.6252 16.6024C10.8498 16.5459 11.0556 16.4311 11.2218 16.2697C11.3879 16.1083 11.5087 15.906 11.5718 15.6831L15.9945 0.648438L0.963115 5.08044ZM1.33378 6.36244L12.6858 3.01577L3.99578 11.6918V9.0251L1.33378 6.36244ZM10.2938 15.3118L7.60912 12.6344H4.94245L13.6312 3.9531L10.2938 15.3118Z" fill="#3BB77E"/>
</g>
</g>
</g>
</g>
<defs>
<clipPath id="clip0_6511_1935">
<rect width="16" height="17" fill="white"/>
</clipPath>
<clipPath id="clip1_6511_1935">
<rect width="16" height="17" fill="white"/>
</clipPath>
<clipPath id="clip2_6511_1935">
<rect width="16" height="17" fill="white"/>
</clipPath>
</defs>
</svg>
