<svg width="16" height="16" viewBox="0 0 16 16" fill="none" xmlns="http://www.w3.org/2000/svg">
<g clip-path="url(#clip0_6511_1944)">
<g clip-path="url(#clip1_6511_1944)">
<g clip-path="url(#clip2_6511_1944)">
<mask id="mask0_6511_1944" style="mask-type:luminance" maskUnits="userSpaceOnUse" x="0" y="0" width="16" height="16">
<path d="M15.7424 0.818359H0.683594V15.8772H15.7424V0.818359Z" fill="white"/>
</mask>
<g mask="url(#mask0_6511_1944)">
<path d="M6.9581 15.8772H0.683594V14.6223H6.9581V15.8772ZM5.7032 12.1125H0.683594V13.3674H5.7032V12.1125ZM4.4483 9.60271H0.683594V10.8576H4.4483V9.60271ZM8.21301 0.818359C6.21675 0.820518 4.30286 1.61448 2.8913 3.02606C1.47972 4.43763 0.685753 6.35151 0.683594 8.34777H1.9385C1.9385 7.10679 2.30649 5.89368 2.99595 4.86184C3.6854 3.83 4.66534 3.02579 5.81185 2.55088C6.95837 2.07598 8.21996 1.95172 9.43714 2.19382C10.6543 2.43593 11.7723 3.03351 12.6498 3.91102C13.5273 4.78853 14.1249 5.90654 14.3669 7.12368C14.6091 8.34081 14.4848 9.60243 14.0099 10.749C13.535 11.8954 12.7308 12.8754 11.699 13.5649C10.6671 14.2543 9.45399 14.6223 8.21301 14.6223V15.8772C10.2099 15.8772 12.125 15.0839 13.5371 13.6719C14.9491 12.2598 15.7425 10.3447 15.7425 8.34777C15.7425 6.35085 14.9491 4.43572 13.5371 3.02367C12.125 1.61163 10.2099 0.818359 8.21301 0.818359ZM7.58556 5.21052V8.60754L9.65173 10.6738L10.539 9.78652L8.84045 8.08801V5.21052H7.58556Z" fill="#3BB77E"/>
</g>
</g>
</g>
</g>
<defs>
<clipPath id="clip0_6511_1944">
<rect width="16" height="16" fill="white"/>
</clipPath>
<clipPath id="clip1_6511_1944">
<rect width="16" height="16" fill="white"/>
</clipPath>
<clipPath id="clip2_6511_1944">
<rect width="16" height="16" fill="white"/>
</clipPath>
</defs>
</svg>
