<svg width="51" height="51" viewBox="0 0 51 51" fill="none" xmlns="http://www.w3.org/2000/svg">
<rect x="0.699219" y="0.75" width="49" height="49" rx="4.5" fill="white"/>
<rect x="0.699219" y="0.75" width="49" height="49" rx="4.5" stroke="#F1F1F1"/>
<g opacity="0.6" clip-path="url(#clip0_6511_7290)">
<path d="M31.3192 26.21L30.2392 27.29L31.9792 28.97H31.6792C30.4792 28.97 29.3992 28.73 28.4392 28.25C27.6792 27.85 26.8992 27.23 26.0992 26.39L25.0792 27.53C25.9192 28.45 26.9092 29.18 28.0492 29.72C29.1892 30.26 30.3992 30.53 31.6792 30.53H31.9792L30.2392 32.21L31.3192 33.29L33.7792 30.83C34.0592 30.51 34.1992 30.15 34.1992 29.75C34.1992 29.35 34.0592 28.99 33.7792 28.67L31.3192 26.21ZM31.6792 21.47H31.9792L30.2392 23.21L31.3192 24.29L33.7792 21.83C34.0592 21.51 34.1992 21.15 34.1992 20.75C34.1992 20.35 34.0592 19.99 33.7792 19.67L31.3192 17.21L30.2392 18.29L31.9792 19.97H31.6792C30.5192 19.97 29.4392 20.17 28.4392 20.57C27.5992 20.93 26.7992 21.45 26.0392 22.13C25.4792 22.61 24.8192 23.27 24.0592 24.11C22.9392 22.83 21.8792 21.89 20.8792 21.29C19.4792 20.45 17.9192 20.03 16.1992 20.03V21.47C17.6792 21.47 19.0192 21.85 20.2192 22.61C21.0592 23.13 22.0192 24.01 23.0992 25.25C22.0192 26.49 21.0592 27.37 20.2192 27.89C19.0192 28.61 17.6792 28.99 16.1992 29.03V30.47C17.5192 30.47 18.7392 30.23 19.8592 29.75C20.8192 29.35 21.7392 28.75 22.6192 27.95C23.1392 27.47 23.8392 26.71 24.7192 25.67C25.5192 24.71 26.1392 24.03 26.5792 23.63C27.2992 22.95 28.0392 22.45 28.7992 22.13C29.6792 21.73 30.6392 21.53 31.6792 21.53V21.47Z" fill="#333333"/>
</g>
<defs>
<clipPath id="clip0_6511_7290">
<rect width="18" height="18" fill="white" transform="matrix(1 0 0 -1 16.1992 34.25)"/>
</clipPath>
</defs>
</svg>
